<svg width="24" height="24" viewBox="0 0 24 24" fill="none" xmlns="http://www.w3.org/2000/svg">
<path fill-rule="evenodd" clip-rule="evenodd" d="M1.3228 0.00170898H22.6733C23.4044 0.00170898 24 0.59349 24 1.32451V22.675C24 23.4061 23.4044 23.9978 22.6733 23.9978H16.5699V14.7193H19.6982L20.0785 11.7676L20.167 11.087H16.5699V8.77399C16.5699 7.72193 16.86 7.01025 18.3645 7.01025H20.2714V3.76899C20.1997 3.75899 20.0907 3.74666 19.9506 3.73347C19.4402 3.68437 18.5156 3.6224 17.4742 3.6224C14.7125 3.6224 12.8173 5.31265 12.8173 8.41467V11.087H9.70056V14.7189H9.70366V14.7193H12.8173V23.9978H1.3228C0.591781 23.9978 0 23.4061 0 22.675V1.32451C0 0.59349 0.595649 0.00170898 1.3228 0.00170898Z" fill="white"/>
</svg>
