<svg width="15" height="24" viewBox="0 0 15 24" fill="none" xmlns="http://www.w3.org/2000/svg">
<path fill-rule="evenodd" clip-rule="evenodd" d="M7.78468 12.387C11.2006 12.387 13.9788 9.60965 13.9788 6.19487C13.9788 2.77854 11.2006 0 7.78468 0C4.36873 0 1.5902 2.77854 1.5902 6.19487C1.5902 9.60965 4.36873 12.387 7.78468 12.387ZM7.78468 3.63023C9.19851 3.63023 10.3493 4.78065 10.3493 6.19487C10.3493 7.60754 9.19851 8.75834 7.78468 8.75834C6.37123 8.75834 5.22004 7.60754 5.22004 6.19487C5.22004 4.78065 6.37123 3.63023 7.78468 3.63023ZM13.887 15.9496C12.7678 16.6534 11.5511 17.1522 10.2904 17.4394L13.7529 20.9026C14.463 21.6104 14.463 22.7596 13.7529 23.4686C13.0447 24.1771 11.8959 24.1771 11.1883 23.4686L7.78402 20.0657L4.38211 23.4686C4.02782 23.8225 3.56337 23.9997 3.09833 23.9997C2.63426 23.9997 2.17059 23.8225 1.81591 23.4686C1.10694 22.7596 1.10694 21.6111 1.81513 20.9026L5.27748 17.4394C4.0171 17.1522 2.80058 16.6527 1.68137 15.9496C0.833575 15.4155 0.578534 14.2959 1.1126 13.4475C1.64588 12.5981 2.76549 12.3427 3.61445 12.877C6.15023 14.4716 9.41682 14.4723 11.954 12.877C12.8027 12.3427 13.9227 12.5981 14.4564 13.4475C14.9905 14.2951 14.735 15.4155 13.887 15.9496Z" fill="white"/>
</svg>
