<svg width="26" height="26" viewBox="0 0 26 26" fill="none" xmlns="http://www.w3.org/2000/svg">
<path fill-rule="evenodd" clip-rule="evenodd" d="M9.01707 0H16.9871C24.2661 0 26 1.7297 26 9.0087V16.9871C26 24.2661 24.2661 26 16.9871 26H9.01707C1.73389 26 0 24.2661 0 16.9871V9.0087C0 1.7297 1.73389 0 9.01707 0ZM18.827 8.25776H20.72C21.2938 8.25776 21.4152 8.55512 21.2938 8.95718C21.0551 10.0629 18.7474 13.3129 18.7474 13.3129C18.5464 13.6353 18.4626 13.7945 18.7474 14.1589C18.8454 14.3007 19.0598 14.51 19.3046 14.7491C19.5514 14.9901 19.8291 15.2614 20.0499 15.5242C20.8624 16.4414 21.4781 17.2162 21.6498 17.7481C21.8047 18.2842 21.5367 18.5522 20.9922 18.5522H19.0992C18.5905 18.5522 18.3337 18.2673 17.7808 17.654C17.5462 17.3938 17.2583 17.0745 16.8753 16.6927C15.7529 15.6038 15.2712 15.4656 14.9864 15.4656C14.6053 15.4656 14.4922 15.5703 14.4922 16.1147V17.8151C14.4922 18.2842 14.3457 18.5522 13.1395 18.5522C11.1292 18.5522 8.922 17.3335 7.35564 15.0844C5.00609 11.7884 4.36111 9.29642 4.36111 8.79385C4.36111 8.51743 4.47001 8.25776 5.01028 8.25776H6.90751C7.39333 8.25776 7.57761 8.47136 7.7577 8.99907C8.68328 11.6962 10.2455 14.0583 10.8946 14.0583C11.1292 14.0583 11.2422 13.9453 11.2422 13.3338V10.5445C11.1982 9.74636 10.92 9.40358 10.7144 9.15008C10.5876 8.99388 10.4884 8.87157 10.4884 8.69752C10.4884 8.48392 10.6726 8.25776 10.97 8.25776H13.952C14.354 8.25776 14.4922 8.47555 14.4922 8.95718V12.7098C14.4922 13.1118 14.6681 13.2542 14.7854 13.2542C15.0283 13.2542 15.2293 13.1118 15.6691 12.6721C17.0344 11.1434 18.0019 8.79385 18.0019 8.79385C18.1234 8.51743 18.3453 8.25776 18.827 8.25776Z" fill="white"/>
</svg>
