<svg width="26" height="26" viewBox="0 0 26 26" fill="none" xmlns="http://www.w3.org/2000/svg">
<path fill-rule="evenodd" clip-rule="evenodd" d="M23.5827 18.251C23.5232 19.5212 23.315 20.2095 23.1366 20.6641C22.8987 21.2716 22.6141 21.7049 22.1595 22.1595C21.7049 22.6141 21.2716 22.8987 20.6641 23.1324C20.2052 23.3108 19.5212 23.5232 18.251 23.5827C16.883 23.6464 16.4709 23.6549 13 23.6549C9.52909 23.6549 9.11699 23.6464 7.74477 23.5827C6.48301 23.5232 5.79052 23.3108 5.3317 23.1324C4.72843 22.8987 4.29085 22.6141 3.84052 22.1595C3.3817 21.7049 3.10556 21.2716 2.86765 20.6641C2.68922 20.2095 2.4768 19.5212 2.42157 18.251C2.35359 16.883 2.34085 16.4709 2.34085 13C2.34085 9.52908 2.35359 9.12124 2.42157 7.74477C2.4768 6.47876 2.68922 5.79052 2.86765 5.3317C3.10556 4.72418 3.3817 4.2951 3.84052 3.83627C4.29085 3.38595 4.72843 3.10131 5.3317 2.86765C5.79052 2.68922 6.48301 2.4768 7.74477 2.41732C9.11699 2.35784 9.52909 2.3451 13 2.3451C16.4709 2.3451 16.883 2.35784 18.251 2.41732C19.5212 2.4768 20.2052 2.68922 20.6641 2.86765C21.2716 3.10131 21.7049 3.38595 22.1595 3.83627C22.6141 4.2951 22.8987 4.72418 23.1366 5.3317C23.315 5.79052 23.5232 6.47876 23.5827 7.74477C23.6464 9.12124 23.6591 9.52908 23.6591 13C23.6591 16.4709 23.6464 16.883 23.5827 18.251ZM25.9193 7.64281C25.8556 6.25784 25.6346 5.31046 25.316 4.48627C24.9846 3.63235 24.5428 2.90588 23.8206 2.18366C23.0941 1.46144 22.3719 1.01536 21.518 0.683987C20.6853 0.361111 19.7464 0.140196 18.3614 0.080719C16.9722 0.0169935 16.5304 0 13 0C9.46961 0 9.02778 0.0169935 7.63856 0.080719C6.25784 0.140196 5.31046 0.361111 4.48627 0.683987C3.63235 1.01536 2.90588 1.46144 2.18366 2.18366C1.46144 2.90588 1.01536 3.63235 0.679739 4.48627C0.361111 5.31046 0.140196 6.25784 0.080719 7.64281C0.0127451 9.02353 0 9.46961 0 13C0 16.5304 0.0127451 16.9722 0.080719 18.3572C0.140196 19.7464 0.361111 20.6853 0.679739 21.518C1.01536 22.3719 1.46144 23.0941 2.18366 23.8206C2.90588 24.5386 3.63235 24.9846 4.48627 25.316C5.31046 25.6389 6.25784 25.8598 7.63856 25.9235C9.02778 25.983 9.46961 26 13 26C16.5304 26 16.9722 25.983 18.3614 25.9235C19.7464 25.8598 20.6853 25.6389 21.518 25.316C22.3719 24.9846 23.0941 24.5386 23.8206 23.8206C24.5428 23.0941 24.9846 22.3719 25.316 21.518C25.6346 20.6853 25.8556 19.7464 25.9193 18.3572C25.983 16.9722 25.9958 16.5304 25.9958 13C25.9958 9.46961 25.983 9.02353 25.9193 7.64281ZM13 17.3333C10.6039 17.3333 8.66667 15.3918 8.66667 13C8.66667 10.6039 10.6039 8.66667 13 8.66667C15.3918 8.66667 17.3333 10.6039 17.3333 13C17.3333 15.3918 15.3918 17.3333 13 17.3333ZM13 6.32157C9.31242 6.32157 6.32582 9.31242 6.32582 13C6.32582 16.6876 9.31242 19.6742 13 19.6742C16.6876 19.6742 19.6742 16.6876 19.6742 13C19.6742 9.31242 16.6876 6.32157 13 6.32157ZM18.3784 6.06242C18.3784 6.92059 19.0752 7.62157 19.9418 7.62157C20.8 7.62157 21.501 6.92059 21.501 6.06242C21.501 5.2 20.8 4.50327 19.9418 4.50327C19.0752 4.50327 18.3784 5.2 18.3784 6.06242Z" fill="white"/>
</svg>
