<svg width="28" height="21" viewBox="0 0 28 21" fill="none" xmlns="http://www.w3.org/2000/svg">
<path fill-rule="evenodd" clip-rule="evenodd" d="M11.2014 14.5996V6.20033L18.4741 10.3982L11.2014 14.5996ZM27.4188 3.66009C27.0958 2.45456 26.1451 1.50735 24.9431 1.18444C22.7581 0.599609 14 0.599609 14 0.599609C14 0.599609 5.24551 0.599609 3.06048 1.18444C1.85853 1.50735 0.90774 2.45456 0.588416 3.66009C0 5.84512 0 10.3982 0 10.3982C0 10.3982 0 14.9584 0.588416 17.1398C0.90774 18.3454 1.85853 19.2926 3.06048 19.6119C5.24551 20.2003 14 20.2003 14 20.2003C14 20.2003 22.7581 20.2003 24.9431 19.6119C26.1451 19.2926 27.0958 18.3454 27.4188 17.1398C28 14.9584 28 10.3982 28 10.3982C28 10.3982 28 5.84512 27.4188 3.66009Z" fill="white"/>
</svg>
