<?xml version="1.0" encoding="UTF-8"?>
<svg width="18px" height="18px" viewBox="0 0 18 18" version="1.1" xmlns="http://www.w3.org/2000/svg" xmlns:xlink="http://www.w3.org/1999/xlink">
    <!-- Generator: Sketch 51.3 (57544) - http://www.bohemiancoding.com/sketch -->
    <title>Group</title>
    <desc>Created with Sketch.</desc>
    <defs></defs>
    <g id="Symbols" stroke="none" stroke-width="1" fill="none" fill-rule="evenodd">
        <g id="footer" transform="translate(-912.000000, -177.000000)">
            <g id="Group" transform="translate(912.000000, 177.000000)">
                <circle id="Oval" fill="#777777" cx="9.02467596" cy="9.02467596" r="9"></circle>
                <path d="M7.70597672,10.7023928 L7.70597672,10.1914831 C7.70597672,9.74961312 7.80033297,9.36528403 7.98904829,9.03848433 C8.17776361,8.71168463 8.52296938,8.36417748 9.02467596,7.99595247 C9.50797129,7.65074152 9.82671129,7.36997416 9.98090551,7.15364196 C10.1350997,6.93730977 10.2121957,6.69566573 10.2121957,6.42870259 C10.2121957,6.12951977 10.1017298,5.90168396 9.88079484,5.74518833 C9.65985983,5.5886927 9.351476,5.51044605 8.95563411,5.51044605 C8.26521221,5.51044605 7.47814305,5.73598049 6.59440302,6.18705613 L5.84184691,4.67503973 C6.86827414,4.09968815 7.956823,3.81201667 9.10752617,3.81201667 C10.0557056,3.81201667 10.8094049,4.03985248 11.3686466,4.49553093 C11.9278883,4.95120939 12.207505,5.55877155 12.207505,6.31823564 C12.207505,6.82454503 12.0924364,7.26180568 11.8622958,7.63003069 C11.6321551,7.99825571 11.1948945,8.41250263 10.5505007,8.8727839 C10.1086307,9.1995836 9.82901404,9.44813176 9.71164232,9.61843582 C9.59427059,9.78873989 9.53558561,10.011973 9.53558561,10.2881417 L9.53558561,10.7023928 L7.70597672,10.7023928 Z M7.48504282,13.0636239 C7.48504282,12.6769876 7.58860455,12.3847134 7.79573112,12.1867925 C8.00285769,11.9888715 8.3043374,11.8899125 8.70017929,11.8899125 C9.08221274,11.8899125 9.37793902,11.9911729 9.58736699,12.1936966 C9.79679497,12.3962204 9.90150739,12.6861932 9.90150739,13.0636239 C9.90150739,13.4272461 9.79564429,13.7137669 9.5839149,13.9231949 C9.37218552,14.1326228 9.07760993,14.2373352 8.70017929,14.2373352 C8.31354302,14.2373352 8.01436469,14.1349242 7.8026353,13.930099 C7.59090592,13.7252739 7.48504282,13.4364517 7.48504282,13.0636239 Z" id="?" fill="#222222"></path>
            </g>
        </g>
    </g>
</svg>