<svg width="26" height="22" viewBox="0 0 26 22" fill="none" xmlns="http://www.w3.org/2000/svg">
<path d="M8.51213 21.1934C17.9799 21.1934 23.1584 13.3494 23.1584 6.54711C23.1584 6.32432 23.1584 6.10253 23.1434 5.88174C24.1508 5.15305 25.0205 4.25079 25.7116 3.21722C24.7721 3.63351 23.7755 3.90651 22.755 4.02711C23.8296 3.3838 24.6338 2.37197 25.0181 1.17994C24.0076 1.77954 22.9022 2.20211 21.7494 2.42941C20.1538 0.73274 17.6184 0.317475 15.5649 1.41647C13.5114 2.51546 12.4505 4.8554 12.9771 7.12417C8.83819 6.91668 4.982 4.96177 2.36819 1.74596C1.00193 4.09801 1.69979 7.10697 3.96188 8.61751C3.14269 8.59323 2.34137 8.37225 1.62553 7.97321C1.62553 7.99428 1.62553 8.01636 1.62553 8.03844C1.6262 10.4888 3.35346 12.5993 5.75528 13.0845C4.99745 13.2911 4.20232 13.3214 3.43098 13.1728C4.10534 15.2697 6.03787 16.7062 8.24016 16.7475C6.41738 18.1801 4.16567 18.9578 1.84733 18.9554C1.43777 18.9546 1.0286 18.9298 0.621948 18.8812C2.97599 20.3918 5.71505 21.1931 8.51213 21.1894" fill="white"/>
</svg>
