<?xml version="1.0" encoding="UTF-8"?>
<svg width="58px" height="72px" viewBox="0 0 58 72" version="1.1" xmlns="http://www.w3.org/2000/svg" xmlns:xlink="http://www.w3.org/1999/xlink">
    <!-- Generator: Sketch 51.3 (57544) - http://www.bohemiancoding.com/sketch -->
    <title>img</title>
    <desc>Created with Sketch.</desc>
    <defs></defs>
    <g id="design" stroke="none" stroke-width="1" fill="none" fill-rule="evenodd">
        <g id="Документы" transform="translate(-636.000000, -360.000000)" fill="#5C00BC" fill-rule="nonzero">
            <g id="img" transform="translate(636.400000, 360.000000)">
                <path d="M51.5947588,71.5474366 L5.80392479,71.5474366 C2.65580495,71.5474366 0.0800705373,68.9717021 0.0800705373,65.8235823 L0.0800705373,6.29549809 C0.0800705373,3.14737825 2.65580495,0.57164384 5.80392479,0.57164384 L29.1000116,0.57164384 C30.6454522,0.57164384 32.0764158,1.14402926 33.1639481,2.23156157 L55.6586953,24.7263088 C56.7462276,25.8138411 57.318613,27.2448046 57.318613,28.7902453 L57.318613,65.8235823 C57.318613,68.9717021 54.7428786,71.5474366 51.5947588,71.5474366 Z M5.80392479,2.86118554 C3.91505289,2.86118554 2.36961224,4.40662619 2.36961224,6.29549809 L2.36961224,65.8235823 C2.36961224,67.7124542 3.91505289,69.2578949 5.80392479,69.2578949 L51.5947588,69.2578949 C53.4836307,69.2578949 55.0290713,67.7124542 55.0290713,65.8235823 L55.0290713,28.7902453 C55.0290713,27.8744286 54.6856401,27.0158505 53.9987776,26.3862265 L31.5040304,3.89147931 C30.8744064,3.20461679 30.0158283,2.86118554 29.1000116,2.86118554 L5.80392479,2.86118554 Z" id="Shape"></path>
                <path d="M27.5545709,54.3758738 C26.8104699,54.3758738 26.0663688,54.1469196 25.4367449,53.6890113 L13.4166509,44.3591289 C13.0159811,44.0156976 12.4435957,44.0156976 11.9856874,44.3591289 L1.96894244,52.3725248 L0.537978877,50.59813 L10.5547238,42.584734 C11.8139718,41.6116788 13.531128,41.5544403 14.790376,42.5274955 L26.8677084,51.8001394 C27.2683782,52.0863321 27.8407637,52.1435706 28.2414335,51.8001394 L42.2076378,41.211009 C43.3524087,40.3524309 44.8978493,40.2951923 46.0998587,41.0392934 L56.8034662,47.6789643 L55.6014568,49.6250748 L44.8978493,42.9854038 C44.4971795,42.7564497 43.9820326,42.7564497 43.5813628,43.0426424 L29.6151585,53.6317727 C29.042773,54.1469196 28.298672,54.3758738 27.5545709,54.3758738 Z" id="Shape"></path>
                <path d="M22.4031021,32.6252276 C18.2819271,32.6252276 14.9620916,29.3053922 14.9620916,25.1842171 C14.9620916,21.0630421 18.2819271,17.7432066 22.4031021,17.7432066 C26.5242772,17.7432066 29.8441126,21.0630421 29.8441126,25.1842171 C29.8441126,29.3053922 26.5242772,32.6252276 22.4031021,32.6252276 Z M22.4031021,20.0327483 C19.541175,20.0327483 17.2516333,22.32229 17.2516333,25.1842171 C17.2516333,28.0461442 19.541175,30.3356859 22.4031021,30.3356859 C25.2650292,30.3356859 27.5545709,28.0461442 27.5545709,25.1842171 C27.5545709,22.32229 25.2650292,20.0327483 22.4031021,20.0327483 Z" id="Shape"></path>
            </g>
        </g>
    </g>
</svg>