<?xml version="1.0" encoding="UTF-8"?>
<svg width="58px" height="72px" viewBox="0 0 58 72" version="1.1" xmlns="http://www.w3.org/2000/svg" xmlns:xlink="http://www.w3.org/1999/xlink">
    <!-- Generator: Sketch 51.3 (57544) - http://www.bohemiancoding.com/sketch -->
    <title>pdf</title>
    <desc>Created with Sketch.</desc>
    <defs></defs>
    <g id="design" stroke="none" stroke-width="1" fill="none" fill-rule="evenodd">
        <g id="Документы" transform="translate(-636.000000, -576.000000)" fill-rule="nonzero">
            <g id="pdf" transform="translate(636.000000, 576.000000)">
                <path d="M51.9068075,71.5160459 L5.76742306,71.5160459 C2.58726598,71.5160459 0,68.9287799 0,65.7486229 L0,5.76742306 C0,2.58726598 2.58726598,0 5.76742306,0 L29.2333373,0 C30.7738159,0 32.2225926,0.60038874 33.3109054,1.68927821 L55.9849524,24.3633252 C57.0744186,25.4527914 57.6742306,26.9004146 57.6742306,28.4408933 L57.6742306,65.7486229 C57.6742306,68.9287799 55.0869646,71.5160459 51.9068075,71.5160459 Z M5.76742306,2.30696922 C3.85898277,2.30696922 2.30696922,3.85898277 2.30696922,5.76742306 L2.30696922,65.7486229 C2.30696922,67.6570631 3.85898277,69.2090767 5.76742306,69.2090767 L51.9068075,69.2090767 C53.8152478,69.2090767 55.3672613,67.6570631 55.3672613,65.7486229 L55.3672613,28.4408933 C55.3672613,27.5302172 54.9975695,26.6385736 54.3539251,25.9943525 L31.6798781,3.32030545 C31.0264291,2.66685642 30.1572784,2.30696922 29.2333373,2.30696922 L5.76742306,2.30696922 Z" id="Shape" fill="#FD4233"></path>
                <path d="M46.8372426,45.1704574 C46.7968707,44.8763188 46.5604063,44.5072037 46.3066397,44.2592045 C45.5799444,43.5440441 43.9823682,43.1691616 41.5485157,43.134557 C39.8990327,43.1172548 37.9150392,43.2614404 35.827232,43.5555789 C34.8929095,43.0192086 33.9297498,42.4309314 33.1742174,41.7215384 C31.1383171,39.8240562 29.4426947,37.1883439 28.3814889,34.2873301 C28.4506979,34.0162612 28.5083722,33.7797968 28.5660464,33.5375651 C28.5660464,33.5375651 29.7079962,27.0319119 29.4080902,24.8287563 C29.3677182,24.5288503 29.3388811,24.4423389 29.2581372,24.2058746 L29.160091,23.952108 C28.8486501,23.2311801 28.2373033,22.4698802 27.2799111,22.5102522 L26.7147036,22.4929499 L26.7031688,22.4929499 C25.6304281,22.4929499 24.7653146,23.0408551 24.5346177,23.8540618 C23.8425269,26.4147976 24.5576874,30.2501339 25.8553576,35.2101178 L25.520847,36.017557 C24.5922919,38.2899217 23.4272725,40.5738212 22.4006712,42.5866519 L22.2680204,42.8461859 C21.1837449,44.9628302 20.203283,46.7622661 19.3093324,48.2848658 L18.3923121,48.7693294 C18.3231031,48.8039339 16.7485966,49.6402103 16.3794815,49.8593723 C13.2477708,51.7337848 11.1714985,53.8561965 10.8254531,55.540284 C10.715872,56.0824218 10.796616,56.7687452 11.356056,57.0859534 L12.2442392,57.5358124 C12.6306565,57.7261374 13.0401435,57.8241836 13.455398,57.8241836 C15.6873907,57.8241836 18.2769637,55.0442857 21.8469985,48.8154688 C25.9649386,47.4774266 30.659621,46.3585465 34.7717936,45.7471997 C37.9035043,47.5062637 41.7561429,48.7347248 44.1899955,48.7347248 C44.6225522,48.7347248 44.9974347,48.6943529 45.2973407,48.6136089 C45.764502,48.4867256 46.1566867,48.2214242 46.3989185,47.863844 C46.8718472,47.1544509 46.964126,46.173989 46.8372426,45.1704574 Z M12.9709345,56.1343286 C13.3746541,55.021216 14.9895325,52.8180604 17.3714782,50.8686714 C17.5214312,50.7475555 17.8905463,50.4015101 18.2250569,50.0785344 C15.7335301,54.0522889 14.0667448,55.6325628 12.9709345,56.1343286 Z M27.0780513,23.6464345 C27.7932117,23.6464345 28.2026987,25.451638 28.2373033,27.1472603 C28.2719078,28.8428827 27.8739556,30.0309719 27.3837247,30.9133876 C26.9742376,29.60995 26.7781453,27.5567474 26.7781453,26.2129378 C26.7781453,26.2129378 26.7493081,23.6464345 27.0780513,23.6464345 Z M22.8678324,46.7968707 C23.3695982,45.9029201 23.8886663,44.9570627 24.4192692,43.9592985 C25.7169394,41.5081437 26.5359135,39.5933593 27.1414929,38.0188528 C28.3526517,40.2220084 29.8637166,42.0964209 31.6343155,43.5959509 C31.859245,43.7805084 32.0957093,43.9708334 32.3379411,44.1611583 C28.7333017,44.8705514 25.6131258,45.7414323 22.8678324,46.7968707 Z M45.6087815,46.5950109 C45.3896195,46.7276616 44.7609703,46.8084055 44.3572507,46.8084055 C43.0538131,46.8084055 41.4331672,46.214361 39.16657,45.2396665 C40.0374509,45.1762248 40.8391227,45.1416203 41.5542831,45.1416203 C42.8634882,45.1416203 43.2499055,45.1358528 44.5360408,45.464596 C45.8164088,45.7933391 45.833711,46.4565927 45.6087815,46.5950109 Z" id="Shape" fill="#FF402F"></path>
            </g>
        </g>
    </g>
</svg>