<?xml version="1.0" encoding="UTF-8"?>
<svg width="30px" height="29px" viewBox="0 0 30 29" version="1.1" xmlns="http://www.w3.org/2000/svg" xmlns:xlink="http://www.w3.org/1999/xlink">
    <!-- Generator: Sketch 51.3 (57544) - http://www.bohemiancoding.com/sketch -->
    <title>Combined Shape</title>
    <desc>Created with Sketch.</desc>
    <defs></defs>
    <g id="design" stroke="none" stroke-width="1" fill="none" fill-rule="evenodd">
        <g id="Событие_Новость" transform="translate(-524.000000, -818.000000)" fill="#5C00BC">
            <path d="M553.263647,836.686532 C553.266135,837.15241 552.890411,837.530681 552.422874,837.53157 L548.210657,837.542469 C547.745607,837.544187 547.369054,837.165916 547.368225,836.702584 C547.365678,836.234988 547.742231,835.858435 548.206451,835.856717 L552.418609,835.845818 C552.884547,835.845818 553.262759,836.220713 553.263647,836.686532 Z M551.925844,832.062369 C552.126353,832.482756 551.946872,832.984826 551.525657,833.185335 L547.721209,834.992399 C547.301652,835.191189 546.799581,835.011768 546.60079,834.591382 C546.398505,834.171824 546.578814,833.669754 546.999201,833.468416 L550.803708,831.662241 C551.224923,831.463391 551.726165,831.641983 551.925844,832.062369 Z M551.951119,841.318324 C551.754817,841.73954 551.251857,841.920679 550.830642,841.722658 L547.017723,839.934194 C546.595678,839.737062 546.414539,839.235821 546.611672,838.813716 C546.809633,838.3925 547.310045,838.211362 547.73209,838.410152 L551.546726,840.197846 C551.967942,840.394978 552.148252,840.89622 551.951119,841.318324 Z M546.643682,829.711936 C547.713574,830.027833 546.964673,831.957038 545.009346,832.523142 C545.05235,833.170159 545.098671,834.13562 545.115494,834.590541 C544.48364,835.363076 543.572141,836.064825 541.360684,835.850042 C541.466062,837.18862 542.560359,838.138918 544.552767,838.333503 C543.9715,840.303165 544.828266,841.186883 544.098676,841.892009 C543.319388,842.646893 540.236889,843.078178 538.040656,842.754699 C534.977526,842.448043 534.040734,845.779089 534.040734,845.779089 C534.040734,845.779089 531.199971,846.823688 528.884143,845.283653 C526.569085,843.743677 526.429233,842.597965 526.429233,842.597965 C526.429233,842.597965 529.962446,840.138908 526.196738,834.696689 C522.019054,828.658926 524.163043,822.407091 529.571558,819.449281 C531.677637,818.297645 533.733249,817.894141 535.708775,818.023035 C540.056639,818.306945 543.632797,821.100499 543.872045,823.697749 C544.13321,826.535077 543.361563,826.798789 544.001768,827.816436 C544.375004,828.40872 545.447443,829.358958 546.643682,829.711936 Z" id="Combined-Shape"></path>
        </g>
    </g>
</svg>