<?xml version="1.0" encoding="UTF-8"?>
<svg width="48px" height="48px" viewBox="0 0 48 48" version="1.1" xmlns="http://www.w3.org/2000/svg" xmlns:xlink="http://www.w3.org/1999/xlink">
    <!-- Generator: Sketch 51.3 (57544) - http://www.bohemiancoding.com/sketch -->
    <title>view hover</title>
    <desc>Created with Sketch.</desc>
    <defs></defs>
    <g id="design" stroke="none" stroke-width="1" fill="none" fill-rule="evenodd">
        <g id="Достижения" transform="translate(-1348.000000, -588.000000)" fill="#5C00BC">
            <path d="M1372,636 C1358.74517,636 1348,625.254834 1348,612 C1348,598.745166 1358.74517,588 1372,588 C1385.25483,588 1396,598.745166 1396,612 C1396,625.254834 1385.25483,636 1372,636 Z M1372.2125,602 C1363.8114,602 1357,611.507812 1357,611.507812 C1357,611.507812 1363.8114,621.015625 1372.2125,621.015625 C1380.6136,621.015625 1387.425,611.507812 1387.425,611.507812 C1387.425,611.507812 1380.6136,602 1372.2125,602 Z M1372.2125,617.2125 C1369.06161,617.2125 1366.50781,614.658702 1366.50781,611.507812 C1366.50781,608.356923 1369.06161,605.803125 1372.2125,605.803125 C1375.36339,605.803125 1377.91719,608.356923 1377.91719,611.507812 C1377.91719,614.658702 1375.36339,617.2125 1372.2125,617.2125 Z" id="view-hover"></path>
        </g>
    </g>
</svg>