<?xml version="1.0" encoding="UTF-8"?>
<svg width="48px" height="48px" viewBox="0 0 48 48" version="1.1" xmlns="http://www.w3.org/2000/svg" xmlns:xlink="http://www.w3.org/1999/xlink">
    <!-- Generator: Sketch 51.3 (57544) - http://www.bohemiancoding.com/sketch -->
    <title>view</title>
    <desc>Created with Sketch.</desc>
    <defs></defs>
    <g id="design" stroke="none" stroke-width="1" fill="none" fill-rule="evenodd">
        <g id="Документы" transform="translate(-1348.000000, -372.000000)" fill="#C8C8C8">
            <path d="M1372,420 C1358.74517,420 1348,409.254834 1348,396 C1348,382.745166 1358.74517,372 1372,372 C1385.25483,372 1396,382.745166 1396,396 C1396,409.254834 1385.25483,420 1372,420 Z M1372.2125,386 C1363.8114,386 1357,395.507812 1357,395.507812 C1357,395.507812 1363.8114,405.015625 1372.2125,405.015625 C1380.6136,405.015625 1387.425,395.507812 1387.425,395.507812 C1387.425,395.507812 1380.6136,386 1372.2125,386 Z M1372.2125,401.2125 C1369.06161,401.2125 1366.50781,398.658702 1366.50781,395.507812 C1366.50781,392.356923 1369.06161,389.803125 1372.2125,389.803125 C1375.36339,389.803125 1377.91719,392.356923 1377.91719,395.507812 C1377.91719,398.658702 1375.36339,401.2125 1372.2125,401.2125 Z" id="view"></path>
        </g>
    </g>
</svg>